HIERARCHY
ROOT hip
{
  OFFSET 0 0 0
  CHANNELS 6 Xposition Yposition Zposition Zrotation Yrotation Xrotation
  JOINT abdomen
  {
    OFFSET 0 20.6881 -0.73152
    CHANNELS 3 Zrotation Xrotation Yrotation
    JOINT chest
    {
      OFFSET 0 11.7043 -0.48768
      CHANNELS 3 Zrotation Xrotation Yrotation
      JOINT neck
      {
        OFFSET 0 22.1894 -2.19456
        CHANNELS 3 Zrotation Xrotation Yrotation
        JOINT head
        {
          OFFSET -0.24384 7.07133 1.2192
          CHANNELS 3 Zrotation Xrotation Yrotation
          JOINT leftEye
          {
            OFFSET 4.14528 8.04674 8.04672
            CHANNELS 3 Zrotation Xrotation Yrotation
            End Site
            {
              OFFSET 1 0 0
            }
          }
          JOINT rightEye
          {
            OFFSET -3.6576 8.04674 8.04672
            CHANNELS 3 Zrotation Xrotation Yrotation
            End Site
            {
              OFFSET 1 0 0
            }
          }
        }
      }
      JOINT rCollar
      {
        OFFSET -2.68224 19.2634 -4.8768
        CHANNELS 3 Zrotation Xrotation Yrotation
        JOINT rShldr
        {
          OFFSET -8.77824 -1.95073 1.46304
          CHANNELS 3 Zrotation Xrotation Yrotation
          JOINT rForeArm
          {
            OFFSET -28.1742 -1.7115 0.48768
            CHANNELS 3 Zrotation Xrotation Yrotation
            JOINT rHand
            {
              OFFSET -22.5879 0.773209 7.07136
              CHANNELS 3 Zrotation Xrotation Yrotation
              JOINT rThumb1
              {
                OFFSET -1.2192 -0.487915 3.41376
                CHANNELS 3 Zrotation Xrotation Yrotation
                JOINT rThumb2
                {
                  OFFSET -3.37035 -0.52449 3.41376
                  CHANNELS 3 Zrotation Xrotation Yrotation
                  End Site
                  {
                    OFFSET -1.78271 -1.18214 1.43049
                  }
                }
              }
              JOINT rIndex1
              {
                OFFSET -7.75947 0.938293 5.60832
                CHANNELS 3 Zrotation Xrotation Yrotation
                JOINT rIndex2
                {
                  OFFSET -2.54057 -0.884171 1.56538
                  CHANNELS 3 Zrotation Xrotation Yrotation
                  End Site
                  {
                    OFFSET -1.62519 -0.234802 1.16502
                  }
                }
              }
              JOINT rMid1
              {
                OFFSET -8.24714 1.18213 3.41376
                CHANNELS 3 Zrotation Xrotation Yrotation
                JOINT rMid2
                {
                  OFFSET -3.10165 -0.590103 1.0647
                  CHANNELS 3 Zrotation Xrotation Yrotation
                  End Site
                  {
                    OFFSET -2.48547 -0.328903 0.83742
                  }
                }
              }
              JOINT rRing1
              {
                OFFSET -8.82822 0.546677 1.51678
                CHANNELS 3 Zrotation Xrotation Yrotation
                JOINT rRing2
                {
                  OFFSET -2.60934 -0.819778 -0.0198488
                  CHANNELS 3 Zrotation Xrotation Yrotation
                  End Site
                  {
                    OFFSET -2.33842 -0.294052 0.168128
                  }
                }
              }
              JOINT rPinky1
              {
                OFFSET -8.27202 -0.0477905 -0.4584
                CHANNELS 3 Zrotation Xrotation Yrotation
                JOINT rPinky2
                {
                  OFFSET -1.82734 -0.647385 -0.700984
                  CHANNELS 3 Zrotation Xrotation Yrotation
                  End Site
                  {
                    OFFSET -1.69225 -0.51767 -0.607171
                  }
                }
              }
            }
          }
        }
      }
      JOINT lCollar
      {
        OFFSET 2.68224 19.2634 -4.8768
        CHANNELS 3 Zrotation Xrotation Yrotation
        JOINT lShldr
        {
          OFFSET 8.77824 -1.95073 1.46304
          CHANNELS 3 Zrotation Xrotation Yrotation
          JOINT lForeArm
          {
            OFFSET 28.1742 -1.7115 0.48768
            CHANNELS 3 Zrotation Xrotation Yrotation
            JOINT lHand
            {
              OFFSET 22.5879 0.773209 7.07136
              CHANNELS 3 Zrotation Xrotation Yrotation
              JOINT lThumb1
              {
                OFFSET 1.2192 -0.487915 3.41376
                CHANNELS 3 Zrotation Xrotation Yrotation
                JOINT lThumb2
                {
                  OFFSET 3.37035 -0.52449 3.41376
                  CHANNELS 3 Zrotation Xrotation Yrotation
                  End Site
                  {
                    OFFSET 1.78271 -1.18214 1.43049
                  }
                }
              }
              JOINT lIndex1
              {
                OFFSET 7.75947 0.938293 5.60832
                CHANNELS 3 Zrotation Xrotation Yrotation
                JOINT lIndex2
                {
                  OFFSET 2.54057 -0.884171 1.56538
                  CHANNELS 3 Zrotation Xrotation Yrotation
                  End Site
                  {
                    OFFSET 1.62519 -0.234802 1.16502
                  }
                }
              }
              JOINT lMid1
              {
                OFFSET 8.24714 1.18213 3.41376
                CHANNELS 3 Zrotation Xrotation Yrotation
                JOINT lMid2
                {
                  OFFSET 3.10165 -0.590103 1.0647
                  CHANNELS 3 Zrotation Xrotation Yrotation
                  End Site
                  {
                    OFFSET 2.48547 -0.328903 0.83742
                  }
                }
              }
              JOINT lRing1
              {
                OFFSET 8.82822 0.546677 1.51678
                CHANNELS 3 Zrotation Xrotation Yrotation
                JOINT lRing2
                {
                  OFFSET 2.60934 -0.819778 -0.0198488
                  CHANNELS 3 Zrotation Xrotation Yrotation
                  End Site
                  {
                    OFFSET 2.33842 -0.294052 0.168128
                  }
                }
              }
              JOINT lPinky1
              {
                OFFSET 8.27202 -0.0477905 -0.4584
                CHANNELS 3 Zrotation Xrotation Yrotation
                JOINT lPinky2
                {
                  OFFSET 1.82734 -0.647385 -0.700984
                  CHANNELS 3 Zrotation Xrotation Yrotation
                  End Site
                  {
                    OFFSET 1.69225 -0.51767 -0.607171
                  }
                }
              }
            }
          }
        }
      }
    }
  }
  JOINT rButtock
  {
    OFFSET -8.77824 4.35084 1.2192
    CHANNELS 3 Zrotation Xrotation Yrotation
    JOINT rThigh
    {
      OFFSET 0 -1.70687 -2.19456
      CHANNELS 3 Zrotation Xrotation Yrotation
      JOINT rShin
      {
        OFFSET 0 -36.8199 0.73152
        CHANNELS 3 Zrotation Xrotation Yrotation
        JOINT rFoot
        {
          OFFSET 0.73152 -45.1104 -5.12064
          CHANNELS 3 Zrotation Xrotation Yrotation
          End Site
          {
            OFFSET -1.1221 -3.69964 12.103
          }
        }
      }
    }
  }
  JOINT lButtock
  {
    OFFSET 8.77824 4.35084 1.2192
    CHANNELS 3 Zrotation Xrotation Yrotation
    JOINT lThigh
    {
      OFFSET 0 -1.70687 -2.19456
      CHANNELS 3 Zrotation Xrotation Yrotation
      JOINT lShin
      {
        OFFSET 0 -36.8199 0.73152
        CHANNELS 3 Zrotation Xrotation Yrotation
        JOINT lFoot
        {
          OFFSET -0.73152 -45.1104 -5.12064
          CHANNELS 3 Zrotation Xrotation Yrotation
          End Site
          {
            OFFSET 1.1221 -3.69964 12.103
          }
        }
      }
    }
  }
}
MOTION
Frames:	4
Frame Time:	0.03333
10.901704686693847 -3.3177755773067474 57.51004330813885 -0.4792838722916093 0.10332296629785387 0.8103234512074107 0.5584762871799106 -1.3652750939713303 -1.5279757495297346 -1.8609014745126644 1.80022057982239 -0.5266956837761056 1.1707509862442498 0.04137184318494239 -1.3739599996661187 2.273383215235493 -1.4128232424349625 0.2978968063398285 0.9635624271354962 -1.8043897699804483 0.866815999193439 0.9184252287271727 1.0754973815226634 -1.5875776877745582 -1.3217430967396655 0.4467536556263955 -1.1964417823119007 0.9397677556144642 0.0502491681152549 -0.09704845036941867 -1.9593366667270071 1.021940160693301 -1.587584197798611 -0.7634162199478489 -0.6472564733939115 1.9998900611503116 1.4063548398475487 0.681975925770673 -1.560015419874324 -0.8485189896240326 -1.5762981639688112 -0.3016927906927689 -0.4045051469893114 1.1815337205095842 -1.6165427057755841 -0.3511570206620012 -1.271232460445246 -0.5411971892402477 -1.5956333622920595 1.0170938213120595 1.4413660693679167 0.8740140580832804 -1.0597768473742328 -0.74229802208611 -1.2757370769245753 2.792748665289147 0.2026495782401627 -1.0960148429025587 -1.1600509613008958 -0.1764614056627173 1.025028686858616 1.543789665170724 -1.2076111693172813 1.043591967083947 1.6019473385712073 1.5173413584354363 -2.0849493950922424 -0.08372760713633685 -0.4817247044245368 -0.7676379171851515 0.7733675921251459 -0.5653451096074162 -0.6794844008274993 0.4946114037584997 0.9110603638111949 0.1284432014459707 1.8130703000852997 0.5194422896818166 -0.3144976878392503 1.2417638227146375 -0.9419553371395724 -1.094460761422969 -0.35020879830613305 -1.5909767741036975 -1.2733317831196729 0.4856419246352449 -0.6715072734854532 0.8886918144445205 2.28663954519743 1.15141354676518 -0.7581529722229723 -1.251801426030206 -1.335931854245015 0.7882732526890823 1.9422586324810365 0.8567509683994847 1.1415072111477227 -1.0970281654989535 1.0797413835964744 1.471196707124536 -0.026222403564574774 1.7630971143011958 1.1695126942920675 -1.418267650255403 -0.17428361585411462 0.46942166609949265 2.109230717591638 -1.0087115783748672 1.0207284424458585 -1.3591410504881298 -1.5238893754153628 0.24917101053332447 0.8113926426167821 0.521641930759678 -0.03393627513888437 0.7260140506920062 0.2166114453990208 -0.15712252544061958 0.7192723871769392 1.6972743678263713 0.3268639320945435 -1.1052903465171418 1.529115217182363 0.9548225597622302 -0.9025399162650155 -0.005505679419772407 -0.16723643477582173 0.5379537031581378 0.8079826706736533 -0.16562501705980118 0.07613630544111726 -1.4676727563996324
11.153202317655087 -3.3554524183273315 58.602155931293964 -0.4921859929120576 0.10782891679850533 0.8111461154764269 0.5455470058853409 -1.371036358536236 -1.5295820179234512 -1.8524561590473552 1.8036659833718385 -0.5220205793717906 1.1957827757787 0.021886700865071173 -1.3869963761924402 2.27980295272507 -1.432211908332807 0.2953425290336553 0.9555039778536447 -1.7783031431060539 0.8654287771008389 0.922307657661796 1.0703145486030932 -1.6074636768213446 -1.315696565055206 0.4456002874715889 -1.1758705331922916 0.946128689444156 0.05752860230575466 -0.11185304547797999 -1.9756221855858447 1.015440168480976 -1.5986190087330012 -0.7566447810768688 -0.638668684451384 2.011139382713323 1.3848352616503659 0.6808761585925952 -1.5712805362497906 -0.8430315195953092 -1.5670952311141595 -0.29654605639017917 -0.41380743775204565 1.1897876839564272 -1.630386005119319 -0.33874963518912926 -1.2846422562200968 -0.5348536510485984 -1.6007034970903244 1.0051952048910742 1.44098955518992 0.8736472555805096 -1.0705813528675467 -0.735282830839125 -1.2681103169426098 2.813134432084108 0.22069152293275138 -1.1061039928020195 -1.151576617531614 -0.17522834307411844 1.006291130087744 1.544577271359391 -1.219039356459182 1.046131730238134 1.5883251666018516 1.5204450390829725 -2.0934973768385134 -0.07387500589774057 -0.4858133196947299 -0.7808571079934765 0.7743084506833152 -0.5782738039326041 -0.6799073923083641 0.49617663765634334 0.9030876120590859 0.1332211855746591 1.8151998250024628 0.5257489555241185 -0.3154675747013921 1.2573693108642359 -0.9419331390247698 -1.1056542675338565 -0.3617919720452549 -1.5858148586384604 -1.2625490488543385 0.5025798332815244 -0.6560120822187803 0.8887426139764725 2.2951047109000142 1.1800379090813513 -0.7560124549701138 -1.2625296255038863 -1.3380742924885776 0.7650040788473182 1.9250617102548253 0.8744136241497261 1.148506127334576 -1.0936490361287954 1.0646639544470828 1.46611622032081 -0.04285524821487809 1.7736335348695866 1.1542499962614394 -1.4131732896299256 -0.16689276420277901 0.4639498841615191 2.1178085814155274 -1.016298637882282 1.0221506158971019 -1.35966345323793 -1.518784556062719 0.2593881731188702 0.816125430103072 0.5274273677909433 -0.05211008783917925 0.7388348493726491 0.21854705697677893 -0.14657820746600084 0.7189943237725256 1.6905210182845212 0.33210196681642923 -1.1092056457371458 1.5387028817863568 0.9367624723796586 -0.896641300864769 0.013469800053926279 -0.159470616411223 0.5312429355768946 0.805047556960399 -0.16200381618050438 0.07530754469465818 -1.4861949487682375
11.396478046663105 -3.3455349504947662 59.704021364450455 -0.4906700110814321 0.102774523451843 0.8031061824105286 0.5450076877451743 -1.362372050130663 -1.5239824367428043 -1.8289415252822938 1.7951510853543597 -0.5227848135068915 1.1938677614901578 0.017490727082227497 -1.383349695505888 2.2663737335997673 -1.4446148915353156 0.2947381906942414 0.9575496195100636 -1.7798893478190836 0.8617327909862157 0.923966966743286 1.0652020452876327 -1.602118947074104 -1.3146118456376432 0.44290121549109673 -1.183900701222111 0.9566296784062275 0.054954314679747436 -0.10909135453662053 -1.969664126195478 1.0149476478087947 -1.6075232275331708 -0.7563895561174926 -0.6520010002678374 2.0086192563529996 1.391195448428117 0.6765573979638844 -1.5667527611603067 -0.8501270189258946 -1.5665008979346626 -0.3054654029921431 -0.40968755302205856 1.1858316170448147 -1.6440708227299685 -0.34304891910653496 -1.2796912228454838 -0.5432823712886585 -1.586350708323189 1.0172623348854886 1.4330341990758533 0.8639645019366644 -1.0730816289905944 -0.7446384290938972 -1.2636248036486155 2.8177396871319886 0.23759037143471495 -1.1014249930554434 -1.1540760398810155 -0.1712415669916673 1.0112302106313094 1.5324663854656064 -1.220443814107266 1.0361015974419703 1.589867081806982 1.514967760977151 -2.0893384319642103 -0.08136881731472882 -0.47764270590010216 -0.7747062024807627 0.7827089430321962 -0.5650044539225618 -0.663383297076252 0.4958893428243797 0.8970268863877574 0.13001019625195975 1.8120551632199067 0.5386806914179211 -0.3206180442636842 1.2602640304118518 -0.9451223037586369 -1.0915623066156508 -0.35926120019478003 -1.5866107891201784 -1.2660898616087553 0.49829404965990015 -0.6531438830150509 0.8941567661933241 2.285993451990629 1.1790626861339206 -0.7534201313758295 -1.2763840239050224 -1.3488199943220058 0.76238288703162 1.9279978378242846 0.8807238118083188 1.1285624018449618 -1.096379404249508 1.0762353621181422 1.4704446392638941 -0.03854631932331241 1.7671716423062256 1.1691197449713802 -1.4252095770513689 -0.16872618974725143 0.4520158361342143 2.1170111568299284 -1.016517417379134 1.0356025667457363 -1.3738164589718427 -1.53122137004596 0.26497566806633727 0.8129298620668581 0.5271280134062264 -0.06545103477358766 0.7416414701521425 0.21160822511028066 -0.1391162791586148 0.7219655094223341 1.6882462451257896 0.32335673667744774 -1.1163199280879488 1.5185416574603603 0.9494764426328143 -0.8919250552428752 0.00743063216716563 -0.15873813198359205 0.5289973508046942 0.8096916053483316 -0.16168463823893853 0.06335173877958722 -1.483276537001938
11.61758687812835 -3.306243196129799 60.81795748323202 -0.4789117337035494 0.09535984617969169 0.7926359292997222 0.5538918428646569 -1.3472449953880832 -1.51633945506156 -1.8094268210499211 1.7826345502568999 -0.5252298077863445 1.173968325508443 0.02747593004025723 -1.3704001904480727 2.2470963784410527 -1.4437965494953835 0.29736458519309644 0.9669381414110692 -1.8031729290911283 0.8599083300650289 0.9224708351499359 1.0622742420112246 -1.5814496207068818 -1.319485825940682 0.44109190905213097 -1.2088797702339054 0.9630637166043795 0.04664912481412928 -0.09414828801480779 -1.9487724985151131 1.0201449948803512 -1.6093935254269907 -0.7612415517491403 -0.6741679523322907 1.9974627826740183 1.4153580963906833 0.6727059183239377 -1.5528745638187813 -0.8637879842353019 -1.5731464585536734 -0.3188773865619623 -0.3971943899781648 1.1741035419096681 -1.6488269822698245 -0.3577490069847098 -1.2643019528717987 -0.5580610863835679 -1.5653519320502194 1.0407105877495537 1.423402885294195 0.853760412760077 -1.0681295283989238 -0.7615434674547961 -1.264151368544941 2.8078188373625452 0.24335723888917424 -1.087878380053781 -1.1644001909766073 -0.16671718031634208 1.0321792545893846 1.5183448626348992 -1.2127817292406868 1.0212761382399287 1.601180329671756 1.5062002526820877 -2.076823604414043 -0.09909099709636983 -0.465497882503879 -0.7567311722976989 0.7912980659960459 -0.5397933719223985 -0.6456805673254897 0.49339205490909377 0.8973666882989656 0.12186903764812766 1.8061846156282806 0.5502839021573034 -0.32517370039880333 1.2506283410402563 -0.9495544561997405 -1.0672363744432387 -0.3475198648876901 -1.5925892323563493 -1.2771131465989212 0.4791720279439503 -0.6616848744895931 0.9009905305404805 2.2694432633014534 1.1558263825775372 -0.7531281407888114 -1.2836231706515897 -1.3608665270272042 0.7773578099826085 1.945060931031446 0.8739784130335494 1.1015022595704291 -1.1025299895971046 1.1014688556765195 1.478017931671263 -0.02046119236052191 1.7530709302081458 1.1984528461356463 -1.442314185002079 -0.17691526639697938 0.44137899044068307 2.1095861008718897 -1.0104332129325335 1.0496826815546003 -1.3884756457562768 -1.5495088813835518 0.26225933384993494 0.8044244622811939 0.5228101065511618 -0.06549017495918301 0.732653261369523 0.20122889889280005 -0.13828806536089785 0.7266321828118923 1.691214922815512 0.3093157353737527 -1.1211225115698198 1.487187567353711 0.9776784004375026 -0.8914601221316384 -0.014173549662275601 -0.16302530298739154 0.5315856189741588 0.8187669524037215 -0.16457380825785392 0.050000693303769245 -1.4661265723262709
